<?xml version="1.0" standalone="no"?>
<!DOCTYPE svg PUBLIC "-//W3C//DTD SVG 20010904//EN"
 "http://www.w3.org/TR/2001/REC-SVG-20010904/DTD/svg10.dtd">
<svg version="1.0" xmlns="http://www.w3.org/2000/svg"
 width="512.000000pt" height="512.000000pt" viewBox="0 0 512.000000 512.000000"
 preserveAspectRatio="xMidYMid meet">
<metadata>
Created by potrace 1.16, written by Peter Selinger 2001-2019
</metadata>
<g transform="translate(0.000000,512.000000) scale(0.100000,-0.100000)"
fill="#000000" stroke="none">
<path d="M367 4752 c-202 -202 -367 -372 -367 -377 0 -5 406 -416 902 -912
l903 -903 -903 -903 c-496 -496 -902 -907 -902 -912 0 -13 732 -745 745 -745
5 0 416 406 912 902 l903 903 903 -903 c496 -496 907 -902 912 -902 13 0 745
732 745 745 0 5 -406 416 -902 912 l-903 903 903 903 c496 496 902 907 902
912 0 13 -732 745 -745 745 -5 0 -416 -406 -912 -902 l-903 -903 -903 903
c-496 496 -907 902 -912 902 -6 0 -175 -165 -378 -368z"/>
</g>
</svg>
