<svg xmlns="http://www.w3.org/2000/svg" width="387.772" height="278.287" viewBox="0 0 387.772 278.287">
  <g id="VoIP-communication-features" transform="translate(-21.426 469.181)">
    <path id="Path_2400" data-name="Path 2400" d="M291.981-441.338a.963.963,0,0,1-.964-.964v-3.229A21.744,21.744,0,0,0,269.3-467.249a.964.964,0,0,1-.968-.962.965.965,0,0,1,.962-.968h.006a23.675,23.675,0,0,1,23.648,23.648v3.229a.964.964,0,0,1-.964.964Z" fill="#0445a5"/>
    <rect id="Rectangle_1382" data-name="Rectangle 1382" width="164.26" height="250.443" rx="16.332" transform="translate(163.176 -442.302)" fill="#fff"/>
    <path id="Path_2401" data-name="Path 2401" d="M311.912-190.9H178.7A16.5,16.5,0,0,1,162.21-207.38v-219.4A16.5,16.5,0,0,1,178.7-443.265H311.912A16.5,16.5,0,0,1,328.4-426.78v219.4A16.5,16.5,0,0,1,311.912-190.9ZM178.7-441.336a14.571,14.571,0,0,0-14.559,14.559v219.4A14.57,14.57,0,0,0,178.7-192.819H311.912a14.57,14.57,0,0,0,14.557-14.558v-219.4a14.572,14.572,0,0,0-14.557-14.559Z" fill="#0445a5"/>
    <rect id="Rectangle_1383" data-name="Rectangle 1383" width="139.456" height="183.67" transform="translate(172.347 -422.401)" fill="#0445a5"/>
    <path id="Path_2402" data-name="Path 2402" d="M311.8-238.151H172.347a.579.579,0,0,1-.579-.579h0V-422.4a.579.579,0,0,1,.577-.58H311.8a.579.579,0,0,1,.578.579h0v183.674A.578.578,0,0,1,311.8-238.151Zm-138.877-1.16h138.3v-182.51h-138.3Z" fill="#0445a5"/>
    <circle id="Ellipse_304" data-name="Ellipse 304" cx="9.662" cy="9.662" r="9.662" transform="translate(232.414 -226.284)" fill="#0445a5"/>
    <path id="Path_2403" data-name="Path 2403" d="M242.075-206.378a10.24,10.24,0,0,1-10.243-10.239,10.241,10.241,0,0,1,10.239-10.243,10.242,10.242,0,0,1,10.243,10.239h0A10.252,10.252,0,0,1,242.075-206.378Zm0-19.323a9.082,9.082,0,0,0-9.082,9.082,9.082,9.082,0,0,0,9.082,9.082,9.082,9.082,0,0,0,9.082-9.082h0A9.084,9.084,0,0,0,242.075-225.7Z" fill="#0445a5"/>
    <path id="Path_2404" data-name="Path 2404" d="M188.1-327.645" fill="#fff" stroke="#0445a5" stroke-linecap="round" stroke-linejoin="round" stroke-width="2.5"/>
    <path id="Path_2405" data-name="Path 2405" d="M246.616-293.971V-445.532A22.682,22.682,0,0,1,269.3-468.217H152.1a22.078,22.078,0,0,0-22.079,22.077v0h0v100.014H77.345a18.482,18.482,0,0,0-18.481,18.482v92.907H44.021a21.44,21.44,0,0,0-21.452,21.427A21.438,21.438,0,0,0,44-191.857H129.7a21.439,21.439,0,0,0,21.434-21.437v-52.1h66.029l.191-.053a29.258,29.258,0,0,0,29.258-29.258h0" fill="#fff"/>
    <path id="Path_2406" data-name="Path 2406" d="M129.7-190.9H44.016a22.4,22.4,0,0,1-22.589-22.219A22.4,22.4,0,0,1,43.646-235.7H57.893V-327.64A19.469,19.469,0,0,1,77.34-347.088h51.711v-99.046A23.071,23.071,0,0,1,152.1-469.181H269.3a.966.966,0,0,1,.962.968.965.965,0,0,1-.962.962,21.742,21.742,0,0,0-21.718,21.718v151.552a.964.964,0,0,1-.012.152A30.259,30.259,0,0,1,217.5-264.495l-.066.018a.9.9,0,0,1-.256.035H152.1v51.135A22.428,22.428,0,0,1,129.7-190.9ZM44.016-233.774a20.473,20.473,0,0,0-20.33,20.615,20.472,20.472,0,0,0,20.33,20.33H129.7A20.5,20.5,0,0,0,150.171-213.3v-52.1a.964.964,0,0,1,.964-.964h65.9l.066-.018a1,1,0,0,1,.256-.036,28.324,28.324,0,0,0,28.294-28.289V-445.531a23.679,23.679,0,0,1,14.292-21.718H152.1a21.138,21.138,0,0,0-21.115,21.114v100.017a.965.965,0,0,1-.965.965H77.34a17.535,17.535,0,0,0-17.517,17.517v92.9a.964.964,0,0,1-.964.964Z" fill="#0445a5"/>
    <path id="Path_2407" data-name="Path 2407" d="M129.7-191.86a21.439,21.439,0,0,1-21.584-21.295,21.44,21.44,0,0,1,21.3-21.584H58.864" fill="#fff"/>
    <path id="Path_2408" data-name="Path 2408" d="M129.7-190.9a22.4,22.4,0,0,1-22.425-22.375,22.4,22.4,0,0,1,13.325-20.5H58.862a.964.964,0,0,1-.968-.962.965.965,0,0,1,.962-.968H129.7a.966.966,0,0,1,.967.963.963.963,0,0,1-.962.967h0a20.473,20.473,0,0,0-20.33,20.615,20.472,20.472,0,0,0,20.33,20.33.965.965,0,0,1,.934,1,.965.965,0,0,1-.934.935h0Z" fill="#0445a5"/>
    <g id="Group_1885" data-name="Group 1885">
      <path id="Path_2409" data-name="Path 2409" d="M159.032-346.659a8.491,8.491,0,0,0-.932-11.973,8.491,8.491,0,0,0-11.973.933,8.491,8.491,0,0,0-.19,10.811" fill="#b1ddf0"/>
      <path id="Path_2410" data-name="Path 2410" d="M159.034-345.693a.965.965,0,0,1-.962-.97.962.962,0,0,1,.232-.624,7.535,7.535,0,0,0-.819-10.623,7.534,7.534,0,0,0-10.623.819,7.529,7.529,0,0,0-1.813,4.9,7.439,7.439,0,0,0,1.648,4.7.966.966,0,0,1-.228,1.346.963.963,0,0,1-1.28-.146h0a9.462,9.462,0,0,1,1.49-13.3,9.463,9.463,0,0,1,13.3,1.49,9.465,9.465,0,0,1-.211,12.065A.959.959,0,0,1,159.034-345.693Z" fill="#b1ddf0"/>
    </g>
    <g id="Group_1887" data-name="Group 1887">
      <g id="Group_1886" data-name="Group 1886">
        <path id="Path_2411" data-name="Path 2411" d="M148.53-358.644a36.575,36.575,0,0,0,8.58,8.527c.758-.758,1.478-1.491,2.206-2.217a1.475,1.475,0,0,1,2-.326c1.608.987,3.185,2.024,4.748,3.078a1.192,1.192,0,0,1,.088,1.681,1.211,1.211,0,0,1-.148.139c-.713.745-.726.732-1.45,1.465-.289.292-.561-.654-.8-.323-.8,1.118-.969,1.394-2.132,1.047-1.635-.488-4.746.3-6.1-.693a46.707,46.707,0,0,1-11.988-12.542,9.623,9.623,0,0,1-1.44-3.385,2.185,2.185,0,0,1,.549-2.091c1.127-1.131,2.218-2.3,3.356-3.415a1.256,1.256,0,0,1,1.765-.192,1.248,1.248,0,0,1,.346.437c.861,1.321,1.729,2.641,2.578,3.97a4.606,4.606,0,0,1,.438.922,1.331,1.331,0,0,1-.361,1.457C150.027-360.319,149.312-359.508,148.53-358.644Z" fill="#0445a5"/>
      </g>
    </g>
    <line id="Line_50" data-name="Line 50" x1="39.596" transform="translate(130.023 -346.122)" fill="none"/>
    <path id="Path_2412" data-name="Path 2412" d="M169.621-345.159h-39.6a.964.964,0,0,1-.968-.962.965.965,0,0,1,.962-.968h39.606a.966.966,0,0,1,.962.968A.965.965,0,0,1,169.621-345.159Z" fill="#0445a5"/>
    <g id="Group_1888" data-name="Group 1888">
      <path id="Path_2413" data-name="Path 2413" d="M229.645-355.352H182.638a.579.579,0,0,1-.579-.579.579.579,0,0,1,.579-.579h47.011a.58.58,0,0,1,.579.579.579.579,0,0,1-.579.579h0Z" fill="#0445a5"/>
    </g>
    <g id="Group_1889" data-name="Group 1889">
      <path id="Path_2414" data-name="Path 2414" d="M229.61-362.9H182.6a.579.579,0,0,1-.579-.579.579.579,0,0,1,.579-.579H229.61a.58.58,0,0,1,.579.579A.579.579,0,0,1,229.61-362.9Z" fill="#0445a5"/>
    </g>
    <g id="Group_1890" data-name="Group 1890">
      <path id="Path_2415" data-name="Path 2415" d="M229.61-347.8H182.6a.579.579,0,0,1-.556-.6.581.581,0,0,1,.556-.556H229.61a.58.58,0,0,1,.6.556.579.579,0,0,1-.555.6Z" fill="#0445a5"/>
    </g>
    <g id="Group_1891" data-name="Group 1891">
      <path id="Path_2416" data-name="Path 2416" d="M229.627-316.5H188.121a.58.58,0,0,1-.58-.579.58.58,0,0,1,.58-.579h41.506a.58.58,0,0,1,.58.579.58.58,0,0,1-.58.579Z" fill="#0445a5"/>
    </g>
    <g id="Group_1892" data-name="Group 1892">
      <path id="Path_2417" data-name="Path 2417" d="M229.585-324.049h-41.5a.579.579,0,0,1-.579-.579.579.579,0,0,1,.579-.579h41.5a.58.58,0,0,1,.579.579A.579.579,0,0,1,229.585-324.049Z" fill="#0445a5"/>
    </g>
    <g id="Group_1893" data-name="Group 1893">
      <path id="Path_2418" data-name="Path 2418" d="M229.585-308.955h-41.5a.579.579,0,0,1-.579-.579.579.579,0,0,1,.579-.579h41.5a.58.58,0,0,1,.579.579A.579.579,0,0,1,229.585-308.955Z" fill="#0445a5"/>
    </g>
    <path id="Path_2419" data-name="Path 2419" d="M151.137-221.005a.964.964,0,0,1-.965-.964V-327.641a19.45,19.45,0,0,1,19.45-19.45,19.451,19.451,0,0,1,19.45,19.45v32.932a28.324,28.324,0,0,0,28.292,28.293.965.965,0,0,1,.934,1,.965.965,0,0,1-.934.935,30.256,30.256,0,0,1-30.223-30.223v-32.933A17.517,17.517,0,0,0,169.4-344.927a17.516,17.516,0,0,0-17.286,17.286V-221.97a.964.964,0,0,1-.964.964Z" fill="#0445a5"/>
    <path id="Path_2420" data-name="Path 2420" d="M347.458-288.509l59.218,74.542a9.043,9.043,0,0,1-1.514,12.7h0a9.043,9.043,0,0,1-12.7-1.515h0l-59.3-75.085" fill="#0445a5"/>
    <path id="Path_2421" data-name="Path 2421" d="M399.58-198.749a9.607,9.607,0,0,1-7.571-3.666l-59.3-75.078a.579.579,0,0,1,.127-.81.581.581,0,0,1,.783.092l59.3,75.08a8.466,8.466,0,0,0,11.907,1.265,8.468,8.468,0,0,0,1.493-11.612c-.034-.042-.067-.086-.1-.128L347-288.143a.579.579,0,0,1,.1-.815.581.581,0,0,1,.815.1l59.218,74.538a9.62,9.62,0,0,1-1.6,13.51,9.612,9.612,0,0,1-5.953,2.066Z" fill="#0445a5"/>
    <circle id="Ellipse_305" data-name="Ellipse 305" cx="61.773" cy="61.773" r="61.773" transform="translate(251.731 -380.012)" fill="#fff"/>
    <path id="Path_2422" data-name="Path 2422" d="M313.6-255.516a62.693,62.693,0,0,1-62.764-62.622A62.694,62.694,0,0,1,313.462-380.9a62.693,62.693,0,0,1,62.764,62.623,62.692,62.692,0,0,1-29.187,53.058A62.685,62.685,0,0,1,313.6-255.516Zm-.224-123.552a61,61,0,0,0-61.007,60.994,61,61,0,0,0,60.993,61.006,61,61,0,0,0,61.007-60.993,61,61,0,0,0-47.52-59.5A61.073,61.073,0,0,0,313.38-379.068Z" fill="#0445a5"/>
    <circle id="Ellipse_306" data-name="Ellipse 306" cx="6.832" cy="6.832" r="6.832" transform="translate(281.592 -316.479)" fill="#b1ddf0"/>
    <path id="Path_2423" data-name="Path 2423" d="M288.424-301.854a7.8,7.8,0,0,1-7.8-7.8,7.8,7.8,0,0,1,7.8-7.8,7.8,7.8,0,0,1,7.8,7.8h0A7.806,7.806,0,0,1,288.424-301.854Zm0-13.663a5.866,5.866,0,0,0-5.868,5.864,5.865,5.865,0,0,0,5.864,5.868,5.866,5.866,0,0,0,5.868-5.863,5.866,5.866,0,0,0-5.864-5.866Z" fill="#b1ddf0"/>
    <circle id="Ellipse_307" data-name="Ellipse 307" cx="6.832" cy="6.832" r="6.832" transform="translate(302.99 -316.479)" fill="#b1ddf0"/>
    <path id="Path_2424" data-name="Path 2424" d="M309.823-301.854a7.8,7.8,0,0,1-7.8-7.8,7.8,7.8,0,0,1,7.8-7.8,7.8,7.8,0,0,1,7.8,7.8h0A7.806,7.806,0,0,1,309.823-301.854Zm0-13.663a5.866,5.866,0,0,0-5.865,5.867,5.865,5.865,0,0,0,5.867,5.865,5.865,5.865,0,0,0,5.865-5.866,5.867,5.867,0,0,0-5.867-5.863Z" fill="#b1ddf0"/>
    <path id="Path_2425" data-name="Path 2425" d="M353.365-343.452a47.166,47.166,0,0,0-47.123-21.393l.02-.011L278.4-394.4l4,40.7a47.163,47.163,0,0,0-4.354,66.557,47.163,47.163,0,0,0,66.556,4.353,47.163,47.163,0,0,0,8.761-60.662Z" fill="#b1ddf0"/>
    <path id="Path_2426" data-name="Path 2426" d="M313.6-270.091a48.144,48.144,0,0,1-48.215-48.075A48.143,48.143,0,0,1,281.4-354.091l-3.951-40.215a.964.964,0,0,1,.855-1.063.967.967,0,0,1,.813.3l27.525,29.186a48.133,48.133,0,0,1,47.556,21.91h0A48.156,48.156,0,0,1,339.2-277.538a48.153,48.153,0,0,1-25.592,7.444ZM279.636-391.683l3.726,37.89a.964.964,0,0,1-.324.821,46.2,46.2,0,0,0-4.266,65.2,46.2,46.2,0,0,0,65.2,4.265,46.2,46.2,0,0,0,8.582-59.425h0a46.2,46.2,0,0,0-46.159-20.955.966.966,0,0,1-.973-.456Z" fill="#b1ddf0"/>
    <g id="Group_1894" data-name="Group 1894">
      <path id="Path_2427" data-name="Path 2427" d="M229.645-434.492H182.638a.579.579,0,0,1-.579-.579.579.579,0,0,1,.579-.579h47.011a.58.58,0,0,1,.579.579.579.579,0,0,1-.579.579h0Z" fill="#0445a5"/>
    </g>
    <g id="Group_1895" data-name="Group 1895">
      <path id="Path_2428" data-name="Path 2428" d="M229.61-442.038H182.6a.579.579,0,0,1-.556-.6.581.581,0,0,1,.556-.556H229.61a.581.581,0,0,1,.555.6A.58.58,0,0,1,229.61-442.038Z" fill="#0445a5"/>
    </g>
    <g id="Group_1896" data-name="Group 1896">
      <path id="Path_2429" data-name="Path 2429" d="M229.61-426.945H182.6a.579.579,0,0,1-.579-.579.579.579,0,0,1,.579-.579H229.61a.58.58,0,0,1,.579.579A.579.579,0,0,1,229.61-426.945Z" fill="#0445a5"/>
    </g>
    <g id="Group_1897" data-name="Group 1897">
      <circle id="Ellipse_308" data-name="Ellipse 308" cx="8.498" cy="8.498" r="8.498" transform="translate(144.082 -439.83)" fill="#b1ddf0"/>
      <path id="Path_2430" data-name="Path 2430" d="M152.581-421.87a9.464,9.464,0,0,1-9.464-9.464,9.464,9.464,0,0,1,9.464-9.464,9.464,9.464,0,0,1,9.464,9.464h0A9.464,9.464,0,0,1,152.581-421.87Zm0-17a7.534,7.534,0,0,0-7.534,7.534,7.534,7.534,0,0,0,7.534,7.534,7.535,7.535,0,0,0,7.534-7.534h0a7.534,7.534,0,0,0-7.532-7.534Z" fill="#b1ddf0"/>
    </g>
    <g id="Group_1899" data-name="Group 1899">
      <g id="Group_1898" data-name="Group 1898">
        <path id="Path_2431" data-name="Path 2431" d="M148.53-437.789a36.523,36.523,0,0,0,8.58,8.528c.758-.759,1.478-1.491,2.206-2.217a1.474,1.474,0,0,1,2-.326c1.608.987,3.185,2.025,4.748,3.079a1.192,1.192,0,0,1,.088,1.681,1.13,1.13,0,0,1-.148.138c-.713.744-1.45,1.465-2.173,2.2a7.992,7.992,0,0,0-.856.89,2.458,2.458,0,0,1-3.033.785,14.578,14.578,0,0,1-4.415-2.379,46.714,46.714,0,0,1-11.988-12.54,9.551,9.551,0,0,1-1.44-3.387,2.179,2.179,0,0,1,.549-2.09c1.126-1.132,2.217-2.3,3.356-3.416a1.255,1.255,0,0,1,1.765-.19,1.247,1.247,0,0,1,.345.435c.861,1.322,1.728,2.64,2.578,3.97a4.615,4.615,0,0,1,.438.923,1.329,1.329,0,0,1-.361,1.457C150.027-439.459,149.313-438.648,148.53-437.789Z" fill="#0445a5"/>
      </g>
    </g>
    <g id="Group_1900" data-name="Group 1900">
      <circle id="Ellipse_309" data-name="Ellipse 309" cx="8.498" cy="8.498" r="8.498" transform="translate(144.082 -399.159)" fill="#b1ddf0"/>
      <path id="Path_2432" data-name="Path 2432" d="M152.581-381.2a9.464,9.464,0,0,1-9.466-9.464,9.465,9.465,0,0,1,9.464-9.466,9.466,9.466,0,0,1,9.466,9.464h0A9.465,9.465,0,0,1,152.581-381.2Zm0-17a7.535,7.535,0,0,0-7.534,7.534,7.534,7.534,0,0,0,7.534,7.534,7.534,7.534,0,0,0,7.534-7.533,7.534,7.534,0,0,0-7.532-7.534h0Z" fill="#b1ddf0"/>
    </g>
    <g id="Group_1902" data-name="Group 1902">
      <g id="Group_1901" data-name="Group 1901">
        <path id="Path_2433" data-name="Path 2433" d="M148.53-397.117a36.523,36.523,0,0,0,8.58,8.528c.758-.759,1.478-1.491,2.206-2.217a1.476,1.476,0,0,1,2-.326c1.608.987,3.185,2.025,4.748,3.079a1.192,1.192,0,0,1,.088,1.681,1.13,1.13,0,0,1-.148.138c-.713.745-1.45,1.465-2.173,2.2a7.992,7.992,0,0,0-.856.89,2.454,2.454,0,0,1-3.033.785,14.575,14.575,0,0,1-4.415-2.378,46.688,46.688,0,0,1-11.988-12.541,9.551,9.551,0,0,1-1.44-3.387,2.179,2.179,0,0,1,.549-2.09c1.126-1.132,2.217-2.3,3.356-3.416a1.255,1.255,0,0,1,1.765-.19,1.238,1.238,0,0,1,.345.435c.861,1.321,1.728,2.64,2.578,3.971a4.615,4.615,0,0,1,.438.923,1.331,1.331,0,0,1-.361,1.457C150.027-398.791,149.313-397.979,148.53-397.117Z" fill="#0445a5"/>
      </g>
    </g>
    <g id="Group_1903" data-name="Group 1903">
      <path id="Path_2434" data-name="Path 2434" d="M229.645-393.821H182.638a.579.579,0,0,1-.6-.555.581.581,0,0,1,.555-.6h47.06a.58.58,0,0,1,.6.556.579.579,0,0,1-.555.6.382.382,0,0,1-.048,0Z" fill="#0445a5"/>
    </g>
    <g id="Group_1904" data-name="Group 1904">
      <path id="Path_2435" data-name="Path 2435" d="M229.61-401.369H182.6a.579.579,0,0,1-.579-.579.579.579,0,0,1,.579-.579H229.61a.58.58,0,0,1,.579.579A.579.579,0,0,1,229.61-401.369Z" fill="#0445a5"/>
    </g>
    <g id="Group_1905" data-name="Group 1905">
      <path id="Path_2436" data-name="Path 2436" d="M229.61-386.272H182.6a.579.579,0,0,1-.579-.579.579.579,0,0,1,.579-.579H229.61a.58.58,0,0,1,.579.579A.579.579,0,0,1,229.61-386.272Z" fill="#0445a5"/>
    </g>
    <path id="Path_2437" data-name="Path 2437" d="M313.5-279.58a38.658,38.658,0,0,1-38.658-38.657A38.658,38.658,0,0,1,313.5-356.894a38.658,38.658,0,0,1,38.658,38.657h0A38.7,38.7,0,0,1,313.5-279.58Zm0-75.385a36.728,36.728,0,0,0-36.73,36.726,36.727,36.727,0,0,0,36.726,36.73,36.728,36.728,0,0,0,36.73-36.726v0h0A36.77,36.77,0,0,0,313.5-354.965Z" fill="#0445a5"/>
    <path id="Path_2438" data-name="Path 2438" d="M314.5-300.257h-.013a4.24,4.24,0,0,1-3.229-1.506l-20.865-24.7a4.244,4.244,0,0,1,.59-5.975,4.246,4.246,0,0,1,5.9.495l17.642,20.886,52.7-61.571A4.247,4.247,0,0,1,373.21-373a4.246,4.246,0,0,1,.458,5.893L317.72-301.745A4.247,4.247,0,0,1,314.5-300.257Z" fill="#0445a5"/>
    <path id="Path_2439" data-name="Path 2439" d="M48.2-439.83v50.293H89.416L103.6-371.148l-1.7-18.385h6.807v-50.3Z" fill="#fff"/>
    <path id="Path_2440" data-name="Path 2440" d="M103.6-370.188a.961.961,0,0,1-.758-.374l-13.9-18.009H48.195a.963.963,0,0,1-.964-.964V-439.83a.965.965,0,0,1,.964-.964H108.7a.967.967,0,0,1,.964.964v50.293a.967.967,0,0,1-.964.965h-5.747l1.611,17.329a.966.966,0,0,1-.865,1.056h0a.828.828,0,0,1-.1,0ZM49.161-390.5H89.415a.968.968,0,0,1,.759.375l12.156,15.75-1.4-15.071a.964.964,0,0,1,.862-1.056c.033,0,.066,0,.1,0h5.841v-48.361H49.162Z" fill="#b1ddf0"/>
    <g id="Group_1906" data-name="Group 1906">
      <path id="Path_2441" data-name="Path 2441" d="M97.906-427.276h-38.7a.579.579,0,0,1-.556-.6.581.581,0,0,1,.556-.556h38.7a.581.581,0,0,1,.555.6A.58.58,0,0,1,97.906-427.276Z" fill="#b1ddf0"/>
    </g>
    <g id="Group_1907" data-name="Group 1907">
      <path id="Path_2442" data-name="Path 2442" d="M97.906-418.822h-38.7a.579.579,0,0,1-.579-.579.579.579,0,0,1,.579-.579h38.7a.58.58,0,0,1,.579.579A.579.579,0,0,1,97.906-418.822Z" fill="#b1ddf0"/>
    </g>
    <g id="Group_1908" data-name="Group 1908">
      <path id="Path_2443" data-name="Path 2443" d="M97.906-410.374h-38.7a.579.579,0,0,1-.6-.555.581.581,0,0,1,.555-.6H97.906a.581.581,0,0,1,.555.6A.58.58,0,0,1,97.906-410.374Z" fill="#b1ddf0"/>
    </g>
    <g id="Group_1909" data-name="Group 1909">
      <path id="Path_2444" data-name="Path 2444" d="M97.906-401.926h-38.7a.579.579,0,0,1-.579-.579.579.579,0,0,1,.579-.579h38.7a.58.58,0,0,1,.579.579A.579.579,0,0,1,97.906-401.926Z" fill="#b1ddf0"/>
    </g>
    <g id="Group_1910" data-name="Group 1910">
      <rect id="Rectangle_1384" data-name="Rectangle 1384" width="10.086" height="37.054" transform="translate(78.45 -313.95)" fill="#0445a5"/>
      <path id="Path_2445" data-name="Path 2445" d="M88.536-276.317H78.45a.578.578,0,0,1-.58-.578h0V-313.95a.579.579,0,0,1,.579-.579H88.537a.581.581,0,0,1,.58.578h0v37.055a.579.579,0,0,1-.579.579h0Zm-9.509-1.158h8.929v-35.9H79.027Z" fill="#0445a5"/>
    </g>
    <g id="Group_1911" data-name="Group 1911">
      <rect id="Rectangle_1385" data-name="Rectangle 1385" width="10.086" height="23.216" transform="translate(99.328 -300.11)" fill="#0445a5"/>
      <path id="Path_2446" data-name="Path 2446" d="M109.414-276.317H99.328a.578.578,0,0,1-.58-.578h0V-300.1a.58.58,0,0,1,.58-.58h10.087a.58.58,0,0,1,.58.58h0v23.216A.579.579,0,0,1,109.414-276.317Zm-9.508-1.158h8.929v-22.056H99.907Z" fill="#0445a5"/>
    </g>
    <g id="Group_1912" data-name="Group 1912">
      <rect id="Rectangle_1386" data-name="Rectangle 1386" width="10.086" height="54.646" transform="translate(120.208 -331.541)" fill="#b1ddf0"/>
      <path id="Path_2447" data-name="Path 2447" d="M130.3-275.929H120.207a.966.966,0,0,1-.964-.964v-54.648a.965.965,0,0,1,.964-.965H130.3a.965.965,0,0,1,.963.965V-276.9A.965.965,0,0,1,130.3-275.929Zm-9.123-1.93h8.159v-52.716h-8.153Z" fill="#b1ddf0"/>
    </g>
    <path id="Path_2448" data-name="Path 2448" d="M365.149-411.443s-11.8,2.513-11.8,21.027c0-18.512-11.8-21.027-11.8-21.027s11.8-2.513,11.8-21.025C353.35-413.954,365.149-411.443,365.149-411.443Z" fill="#fff"/>
    <path id="Path_2449" data-name="Path 2449" d="M353.349-389.452a.963.963,0,0,1-.964-.964c0-17.44-10.59-19.983-11.04-20.082a.965.965,0,0,1-.739-1.149.967.967,0,0,1,.739-.739c.455-.1,11.037-2.64,11.037-20.08a.966.966,0,0,1,1-.935.968.968,0,0,1,.935.935c0,17.44,10.588,19.982,11.038,20.082a.967.967,0,0,1,.733,1.153.964.964,0,0,1-.733.733c-.473.1-11.037,2.661-11.037,20.082a.964.964,0,0,1-.964.964Zm-9.219-21.989c2.786,1.441,7.266,4.885,9.219,12.605,1.955-7.72,6.433-11.164,9.217-12.605-2.784-1.44-7.264-4.883-9.217-12.6C351.4-416.322,346.916-412.879,344.13-411.441Z" fill="#b1ddf0"/>
    <path id="Path_2450" data-name="Path 2450" d="M379.806-441.051s-7.967,1.7-7.967,14.2c0-12.5-7.967-14.2-7.967-14.2s7.967-1.7,7.967-14.2C371.834-442.748,379.806-441.051,379.806-441.051Z" fill="#fff"/>
    <path id="Path_2451" data-name="Path 2451" d="M371.83-425.89a.964.964,0,0,1-.964-.965c0-11.584-7.127-13.236-7.2-13.252a.964.964,0,0,1-.749-1.139.964.964,0,0,1,.749-.749c.289-.066,7.2-1.755,7.2-13.251a.963.963,0,0,1,.958-.97.965.965,0,0,1,.971.958v.012c0,11.584,7.127,13.235,7.2,13.251a.965.965,0,0,1,.742,1.144.963.963,0,0,1-.742.742c-.3.07-7.206,1.77-7.206,13.253A.965.965,0,0,1,371.83-425.89Zm-5.5-15.166a12.445,12.445,0,0,1,5.508,7.291,12.439,12.439,0,0,1,5.507-7.291,12.424,12.424,0,0,1-5.507-7.29,12.439,12.439,0,0,1-5.506,7.293Z" fill="#b1ddf0"/>
    <path id="Path_2452" data-name="Path 2452" d="M91.507-262.019h-18.1a.579.579,0,0,1-.579-.579.579.579,0,0,1,.579-.579h18.1a.58.58,0,0,1,.579.579A.579.579,0,0,1,91.507-262.019Z" fill="#0445a5"/>
    <path id="Path_2453" data-name="Path 2453" d="M126.176-262.019H98.958a.579.579,0,0,1-.579-.579.579.579,0,0,1,.579-.579h27.224a.58.58,0,0,1,.579.579.579.579,0,0,1-.579.579h-.006Z" fill="#0445a5"/>
    <path id="Path_2454" data-name="Path 2454" d="M137.675-244.815H115.331a.58.58,0,0,1-.556-.6.581.581,0,0,1,.556-.556h22.344a.581.581,0,0,1,.555.6A.58.58,0,0,1,137.675-244.815Z" fill="#0445a5"/>
    <path id="Path_2455" data-name="Path 2455" d="M104.022-253.414h-30.8a.579.579,0,0,1-.6-.555.581.581,0,0,1,.555-.6h30.849a.581.581,0,0,1,.555.6A.58.58,0,0,1,104.022-253.414Z" fill="#0445a5"/>
    <path id="Path_2456" data-name="Path 2456" d="M108.563-244.815H73.229a.58.58,0,0,1-.556-.6.581.581,0,0,1,.556-.556h35.335a.581.581,0,0,1,.555.6.58.58,0,0,1-.555.555Z" fill="#0445a5"/>
    <path id="Path_2457" data-name="Path 2457" d="M139.159-253.414H111.346a.58.58,0,0,1-.556-.6.581.581,0,0,1,.556-.556H139.16a.58.58,0,0,1,.6.556.579.579,0,0,1-.555.6.382.382,0,0,1-.048,0Z" fill="#0445a5"/>
    <path id="Path_2458" data-name="Path 2458" d="M139.161-262.019h-6.37a.579.579,0,0,1-.579-.579.579.579,0,0,1,.579-.579h6.37a.58.58,0,0,1,.579.579A.579.579,0,0,1,139.161-262.019Z" fill="#0445a5"/>
  </g>
</svg>
